<svg width="36" height="36" viewBox="0 0 36 36" fill="none" xmlns="http://www.w3.org/2000/svg">
<path d="M0.304688 18.4162C0.304688 13.3162 0.304688 8.2161 0.304688 3.11604C0.304688 1.57715 0.99449 0.896484 2.56404 0.896484C12.7211 0.896484 22.8782 0.896484 33.0453 0.896484C34.6049 0.896484 35.3047 1.58701 35.3047 3.11604C35.3047 13.3162 35.3047 23.5064 35.3047 33.7065C35.3047 35.206 34.5949 35.8965 33.0753 35.8965C22.8982 35.8965 12.7211 35.8965 2.53405 35.8965C1.01448 35.8965 0.304688 35.1961 0.304688 33.7065C0.304688 28.6065 0.304688 23.5064 0.304688 18.4063V18.4162ZM33.3952 34.0222V2.80037H2.23414V34.0222H33.4052H33.3952Z" fill="#B27E02"/>
<path d="M12.761 10.6557C12.8304 10.6553 12.8304 10.6553 12.9012 10.6549C13.0562 10.6543 13.2112 10.6548 13.3662 10.6553C13.4773 10.6551 13.5884 10.6548 13.6995 10.6544C13.97 10.6537 14.2404 10.6539 14.5109 10.6543C14.7308 10.6547 14.9506 10.6547 15.1704 10.6546C15.2017 10.6545 15.233 10.6545 15.2653 10.6545C15.3289 10.6544 15.3924 10.6544 15.456 10.6543C16.0521 10.6539 16.6482 10.6544 17.2443 10.6553C17.7557 10.656 18.2671 10.6559 18.7785 10.6551C19.3725 10.6543 19.9664 10.6539 20.5604 10.6544C20.6238 10.6545 20.6871 10.6545 20.7505 10.6546C20.7972 10.6546 20.7972 10.6546 20.8449 10.6546C21.0645 10.6548 21.284 10.6545 21.5036 10.6542C21.7991 10.6537 22.0946 10.654 22.3902 10.655C22.4987 10.6552 22.6073 10.6551 22.7159 10.6547C22.8639 10.6543 23.0118 10.6549 23.1599 10.6557C23.203 10.6553 23.2461 10.6549 23.2905 10.6546C23.5343 10.6571 23.6793 10.6795 23.8715 10.8369C24.0247 10.9905 24.0535 11.1137 24.0615 11.3195C24.0535 11.5252 24.0247 11.6484 23.8715 11.802C23.6457 11.9847 23.4615 11.9862 23.1786 11.9848C23.1349 11.9852 23.0912 11.9856 23.0462 11.9861C22.9023 11.9872 22.7584 11.9873 22.6144 11.9874C22.5145 11.988 22.4145 11.9886 22.3145 11.9894C22.0517 11.9911 21.7889 11.9919 21.5261 11.9925C21.2578 11.9933 20.9895 11.995 20.7212 11.9966C20.195 11.9997 19.6688 12.0017 19.1427 12.0031C19.1656 12.0247 19.1886 12.0462 19.2122 12.0685C19.2425 12.0971 19.2727 12.1257 19.3039 12.1551C19.3338 12.1833 19.3637 12.2116 19.3946 12.2406C19.5118 12.3554 19.6139 12.4769 19.7127 12.6062C19.7322 12.6317 19.7517 12.6571 19.7718 12.6833C20.0417 13.0455 20.2266 13.4461 20.4093 13.8528C20.449 13.8529 20.4886 13.8531 20.5294 13.8532C20.9034 13.8547 21.2774 13.857 21.6514 13.8602C21.8436 13.8618 22.0358 13.8631 22.2281 13.8637C22.4137 13.8643 22.5993 13.8657 22.7849 13.8676C22.8557 13.8682 22.9264 13.8685 22.9971 13.8685C23.0964 13.8686 23.1956 13.8697 23.2949 13.871C23.3385 13.8707 23.3385 13.8707 23.383 13.8704C23.592 13.8747 23.7094 13.9312 23.8715 14.0538C24.0247 14.2074 24.0535 14.3306 24.0615 14.5364C24.0535 14.7422 24.0247 14.8653 23.8715 15.0189C23.6812 15.1615 23.5593 15.1997 23.3181 15.198C23.2893 15.198 23.2604 15.1981 23.2307 15.1981C23.1361 15.198 23.0415 15.1967 22.9469 15.1955C22.881 15.1952 22.8151 15.1949 22.7492 15.1948C22.5764 15.1942 22.4036 15.1926 22.2307 15.1908C22.0541 15.1892 21.8775 15.1884 21.7009 15.1876C21.3548 15.1859 21.0087 15.1832 20.6627 15.1798C20.663 15.2056 20.6633 15.2315 20.6637 15.2582C20.665 15.3776 20.6658 15.4971 20.6666 15.6166C20.6674 15.6776 20.6674 15.6776 20.6682 15.7399C20.6742 16.9146 20.1314 17.9851 19.3116 18.839C19.2813 18.8711 19.251 18.9033 19.2199 18.9364C18.7685 19.3921 18.2191 19.7118 17.6227 19.9649C17.5782 19.9843 17.5336 20.0037 17.4878 20.0237C16.7778 20.309 16.0292 20.3517 15.2688 20.357C15.1852 20.3581 15.1016 20.3593 15.0179 20.3606C14.8166 20.3635 14.6152 20.3655 14.4138 20.367C14.5157 20.4579 14.6176 20.5486 14.7196 20.6394C14.7483 20.665 14.7771 20.6907 14.8067 20.7171C14.9677 20.8603 15.1302 21.0011 15.2972 21.138C15.4426 21.2598 15.584 21.3859 15.7261 21.5113C15.8991 21.6638 16.0737 21.8145 16.2493 21.9643C16.37 22.0679 16.4897 22.1724 16.6093 22.2771C16.7634 22.4119 16.9181 22.5461 17.0738 22.6792C17.2514 22.831 17.4275 22.9844 17.6032 23.1382C17.7357 23.254 17.8688 23.369 18.0027 23.4834C18.1803 23.6352 18.3564 23.7886 18.5321 23.9424C18.6646 24.0582 18.7977 24.1733 18.9316 24.2876C19.1092 24.4395 19.2852 24.5928 19.461 24.7466C19.5935 24.8624 19.7266 24.9775 19.8604 25.0919C19.894 25.1206 19.9275 25.1494 19.962 25.1791C20.0205 25.2291 20.079 25.2791 20.1377 25.3288C20.2073 25.3879 20.2767 25.4472 20.346 25.5066C20.3678 25.5249 20.3896 25.5433 20.4121 25.5622C20.569 25.6972 20.6516 25.7879 20.6768 25.9888C20.6825 26.4106 20.6825 26.4106 20.4938 26.5998C20.2976 26.7773 20.1185 26.7795 19.8604 26.782C19.5935 26.737 19.4069 26.5431 19.2166 26.3711C19.168 26.3278 19.1195 26.2846 19.0709 26.2414C19.0354 26.2096 19.0354 26.2096 18.9991 26.1772C18.9064 26.0949 18.8122 26.0143 18.7178 25.9338C18.5629 25.8016 18.4092 25.6682 18.256 25.5342C18.1019 25.3994 17.9473 25.2652 17.7916 25.1321C17.6139 24.9803 17.4379 24.8269 17.2621 24.6731C17.1297 24.5573 16.9965 24.4422 16.8627 24.3279C16.6851 24.176 16.509 24.0227 16.3333 23.8689C16.2008 23.7531 16.0676 23.638 15.9338 23.5236C15.7562 23.3718 15.5801 23.2184 15.4044 23.0647C15.2719 22.9488 15.1387 22.8338 15.0049 22.7194C14.8273 22.5676 14.6512 22.4142 14.4755 22.2604C14.343 22.1446 14.2099 22.0296 14.076 21.9152C13.8984 21.7634 13.7223 21.61 13.5466 21.4562C13.4141 21.3404 13.281 21.2253 13.1471 21.1109C12.9698 20.9593 12.7938 20.8064 12.6186 20.6525C12.4465 20.5016 12.2711 20.3546 12.0941 20.209C11.9239 20.046 11.8623 19.916 11.862 19.686C11.8682 19.4784 11.8947 19.356 12.0494 19.2009C12.241 19.0557 12.3866 19.0167 12.6263 19.0194C12.6734 19.019 12.6734 19.019 12.7215 19.0185C12.8249 19.0177 12.9284 19.0181 13.0319 19.0184C13.1046 19.018 13.1773 19.0175 13.25 19.0169C13.4415 19.0156 13.633 19.0152 13.8245 19.0151C14.1293 19.0147 14.4341 19.0133 14.7388 19.0114C14.8442 19.0109 14.9495 19.0109 15.0549 19.011C15.3805 19.0102 15.7014 18.9997 16.0251 18.9643C16.0534 18.9612 16.0817 18.9581 16.1109 18.955C17.0876 18.8363 17.9498 18.3273 18.5516 17.5924C18.9902 16.9778 19.2209 16.323 19.2515 15.5842C19.2533 15.5452 19.2551 15.5062 19.2569 15.4661C19.2612 15.3706 19.2654 15.2752 19.2693 15.1798C19.2337 15.1799 19.198 15.1801 19.1612 15.1802C18.2933 15.1838 17.4254 15.1864 16.5575 15.1881C16.1377 15.1889 15.718 15.1901 15.2983 15.1919C14.9325 15.1935 14.5666 15.1945 14.2008 15.1949C14.0071 15.1951 13.8134 15.1956 13.6197 15.1968C13.4373 15.1979 13.255 15.1982 13.0726 15.198C13.0057 15.198 12.9388 15.1983 12.8719 15.1989C12.7805 15.1997 12.6891 15.1995 12.5976 15.1991C12.5209 15.1993 12.5209 15.1993 12.4427 15.1996C12.2263 15.169 12.097 15.0667 11.9491 14.9184C11.8478 14.7107 11.8487 14.5203 11.8805 14.2951C11.9781 14.0949 12.1039 14.0017 12.3027 13.893C12.4361 13.8732 12.4361 13.8732 12.5816 13.8737C12.6647 13.8733 12.6647 13.8733 12.7495 13.873C12.8104 13.8736 12.8713 13.8741 12.9322 13.8747C12.9967 13.8748 13.0612 13.8748 13.1258 13.8747C13.3005 13.8746 13.4752 13.8756 13.6499 13.8767C13.8326 13.8777 14.0154 13.8778 14.1981 13.878C14.544 13.8785 14.8899 13.8798 15.2357 13.8814C15.6295 13.8832 16.0234 13.8841 16.4172 13.8849C17.2272 13.8866 18.0371 13.8894 18.8471 13.893C18.8005 13.8156 18.7538 13.7383 18.707 13.661C18.6679 13.5964 18.6679 13.5964 18.6281 13.5305C18.5359 13.3859 18.4345 13.2629 18.3114 13.1415C18.2897 13.1199 18.2681 13.0982 18.2457 13.0759C17.4653 12.3142 16.4704 12.0109 15.3739 11.998C15.2408 11.9971 15.1078 11.9966 14.9747 11.9963C14.8657 11.996 14.7567 11.9954 14.6477 11.9946C14.3381 11.9925 14.0286 11.9906 13.7191 11.99C13.5288 11.9896 13.3385 11.9884 13.1482 11.9867C13.076 11.9862 13.0039 11.986 12.9317 11.9861C12.831 11.9862 12.7303 11.9853 12.6296 11.9842C12.5854 11.9846 12.5854 11.9846 12.5403 11.985C12.3301 11.9812 12.2123 11.9256 12.0494 11.802C11.8962 11.6484 11.8674 11.5252 11.8594 11.3195C11.8674 11.1137 11.8962 10.9905 12.0494 10.8369C12.2787 10.6491 12.4727 10.6533 12.761 10.6557Z" fill="#B27E02"/>
</svg>
